<svg width="16" height="16" viewBox="0 0 16 16" fill="none" xmlns="http://www.w3.org/2000/svg">
<path d="M9.1768 4.2357C9.1768 4.06119 9.24522 3.89365 9.36737 3.76903L11.4387 1.69903C11.6527 1.48436 11.5847 1.12303 11.2927 1.04303C10.5601 0.841608 9.78532 0.852991 9.05897 1.07585C8.33262 1.2987 7.68477 1.72382 7.19121 2.30144C6.69765 2.87906 6.37881 3.58531 6.27199 4.33753C6.16517 5.08975 6.2748 5.85684 6.58804 6.54903L1.3147 11.8224C1.04949 12.0875 0.900453 12.4471 0.900391 12.8221C0.900328 13.1971 1.04924 13.5568 1.31437 13.822C1.5795 14.0872 1.93912 14.2363 2.31413 14.2363C2.68914 14.2364 3.04882 14.0875 3.31404 13.8224L8.58737 8.54903C9.27956 8.86227 10.0466 8.97189 10.7989 8.86507C11.5511 8.75826 12.2573 8.43941 12.835 7.94586C13.4126 7.4523 13.8377 6.80444 14.0606 6.07809C14.2834 5.35174 14.2948 4.57695 14.0934 3.84436C14.0134 3.55236 13.6514 3.48436 13.438 3.69903L11.3674 5.76903C11.2428 5.89118 11.0752 5.9596 10.9007 5.9596C10.7262 5.9596 10.5587 5.89118 10.434 5.76903L9.36737 4.70236C9.24522 4.57774 9.1768 4.4102 9.1768 4.2357Z" stroke="#C23B3B" stroke-width="1.8" stroke-linecap="round"/>
</svg>
