<svg width="17" height="19" viewBox="0 0 17 19" fill="none" xmlns="http://www.w3.org/2000/svg">
<path d="M1.24984 5.16528L8.49984 9.33219M8.49984 9.33219L15.7498 5.16528M8.49984 9.33219L8.5 17.666M16 5.99858C15.9997 5.70629 15.9225 5.41922 15.7763 5.16617C15.63 4.91311 15.4198 4.70297 15.1667 4.55683L9.33333 1.2233C9.07997 1.07701 8.79256 1 8.5 1C8.20744 1 7.92003 1.07701 7.66667 1.2233L1.83333 4.55683C1.58022 4.70297 1.36998 4.91311 1.22372 5.16617C1.07745 5.41922 1.0003 5.70629 1 5.99858V12.6656C1.0003 12.9579 1.07745 13.245 1.22372 13.498C1.36998 13.7511 1.58022 13.9612 1.83333 14.1074L7.66667 17.4409C7.92003 17.5872 8.20744 17.6642 8.5 17.6642C8.79256 17.6642 9.07997 17.5872 9.33333 17.4409L15.1667 14.1074C15.4198 13.9612 15.63 13.7511 15.7763 13.498C15.9225 13.245 15.9997 12.9579 16 12.6656V5.99858Z" stroke="#167A50" stroke-width="2" stroke-linecap="round"/>
</svg>
